<?xml version="1.0" standalone="no"?><!-- Generator: Gravit.io --><svg xmlns="http://www.w3.org/2000/svg" xmlns:xlink="http://www.w3.org/1999/xlink" style="isolation:isolate" viewBox="0 0 397 417" width="397" height="417"><defs><clipPath id="_clipPath_0Bq6nQdHybnRXiAaYmuaAIlY1kUgIiIA"><rect width="397" height="417"/></clipPath></defs><g clip-path="url(#_clipPath_0Bq6nQdHybnRXiAaYmuaAIlY1kUgIiIA)"><path d=" M 267.646 142.982 L 307.262 120.036 L 267.583 97.2 L 227.967 120.146 L 267.646 142.982 Z " fill="rgb(252,250,250)"/><path d=" M 198.318 183.111 L 237.934 160.166 L 198.255 137.33 L 158.639 160.276 L 198.318 183.111 Z " fill="rgb(252,250,250)"/><path d=" M 128.879 142.981 L 168.495 120.036 L 128.816 97.2 L 89.2 120.146 L 128.879 142.981 Z " fill="rgb(252,250,250)"/><path d=" M 198.207 103.001 L 237.823 80.056 L 198.144 57.22 L 158.528 80.166 L 198.207 103.001 Z " fill="rgb(252,250,250)"/><path d=" M 19.856 137.591 L 188.494 234.642 L 188.7 383.431 L 20.063 286.38 L 19.856 137.591 Z  M 198.112 22.89 L 366.749 119.942 L 198.382 217.461 L 29.744 120.41 L 198.112 22.89 Z  M 376.685 137.096 L 376.892 285.885 L 208.524 383.404 L 208.318 234.615 L 376.685 137.096 Z  M 198.08 0 L 0 114.728 L 0.255 297.853 L 198.652 412.031 L 396.732 297.303 L 396.477 114.178 L 198.08 0 Z " fill="rgb(252,250,250)"/></g></svg>
